<?xml version="1.0" encoding="iso-8859-1"?>
<!-- Generator: Adobe Illustrator 18.1.1, SVG Export Plug-In . SVG Version: 6.00 Build 0)  -->
<svg version="1.1" id="Capa_1" xmlns="http://www.w3.org/2000/svg" xmlns:xlink="http://www.w3.org/1999/xlink" x="0px" y="0px"
	 viewBox="0 0 316.358 316.358" style="enable-background:new 0 0 316.358 316.358;" xml:space="preserve">
<g>
	<path style="fill:#010002;" d="M208.444,47.793L164.366,2.464c-1.528-1.572-3.628-2.453-5.814-2.464c-0.011,0-0.022,0-0.033,0
		c-2.181,0-4.275,0.87-5.803,2.42L107.957,47.75c-1.507,1.517-2.355,3.579-2.355,5.727v254.722c0,4.504,3.65,8.159,8.159,8.159
		h88.836c4.509,0,8.159-3.655,8.159-8.159V53.477C210.756,51.356,209.923,49.316,208.444,47.793z M121.914,72.845l16.812,12.983
		c3.149,2.42,7.587,2.23,10.508-0.457l20.342-18.716l24.862,17.008v182.16h-72.524V72.845z M194.438,63.898l-21-14.386
		c-3.133-2.154-7.337-1.849-10.133,0.734l-20.054,18.455l-18.759-14.479l22.627-22.915h21.713c0.256,0,0.5-0.054,0.756-0.076
		l24.857,25.558v7.109H194.438z M121.914,300.041v-17.9h72.524v17.9H121.914z"/>
</g>
<g>
</g>
<g>
</g>
<g>
</g>
<g>
</g>
<g>
</g>
<g>
</g>
<g>
</g>
<g>
</g>
<g>
</g>
<g>
</g>
<g>
</g>
<g>
</g>
<g>
</g>
<g>
</g>
<g>
</g>
</svg>
