<svg id="Layer_1" height="512" viewBox="0 0 512 512" width="512" xmlns="http://www.w3.org/2000/svg" data-name="Layer 1">
<path d="m325.617 122.362-42.64-82.249c-5.812-11.213-18.524-18.294-32.207-18.113h-.107c-13.828.208-26.238 7.711-31.615 19.113l-39.371 83.488a31.157 31.157 0 0 0 -2.99 13.857l6.165 312.593c.426 21.619 20.287 38.949 44.439 38.949.252 0 .508 0 .761-.006l63.567-.96c12.671-.19 24.677-5.207 32.942-13.764a37.109 37.109 0 0 0 10.75-26.573l-6.165-312.6a31.276 31.276 0 0 0 -3.529-13.735zm-8.466 14.138.76 38.522-128.462 1.939-.76-38.522zm1 50.519 4.761 241.383-128.462 1.939-4.76-241.382zm-88.251-140.783c3.439-7.292 11.659-12.094 20.851-12.233h.108.418c9.135 0 17.364 4.537 21.044 11.638l40.917 78.925-121.138 1.824zm86.027 420.7c-6.062 6.276-14.989 9.958-24.491 10.1l-63.567.96c-.2 0-.388 0-.582 0-17.644 0-32.142-12.093-32.439-27.183l-.167-8.476 128.462-1.94.168 8.533a25.2 25.2 0 0 1 -7.382 18.006z"/><path d="m226.506 402.463a6 6 0 0 0 6 5.882h.092l51.262-.774a6 6 0 0 0 5.909-6.117l-3.569-180.943a6 6 0 0 0 -6-5.882h-.092l-51.263.773a6 6 0 0 0 -5.909 6.118zm47.812-175.744 3.331 168.944-39.263.592-3.332-168.944z"/>
</svg>