<?xml version="1.0" standalone="no"?>
<!DOCTYPE svg PUBLIC "-//W3C//DTD SVG 20010904//EN"
 "http://www.w3.org/TR/2001/REC-SVG-20010904/DTD/svg10.dtd">
<svg version="1.0" xmlns="http://www.w3.org/2000/svg"
 width="200.000000pt" height="200.000000pt" viewBox="0 0 200.000000 200.000000"
 preserveAspectRatio="xMidYMid meet">
<metadata>
Created by potrace 1.15, written by Peter Selinger 2001-2017
</metadata>
<g transform="translate(0.000000,200.000000) scale(0.100000,-0.100000)"
fill="#000000" stroke="none">
<path d="M827 1703 l-98 -198 3 -700 3 -700 265 0 265 0 3 700 3 700 -98 198
-98 197 -75 0 -75 0 -98 -197z m271 -18 l72 -145 -170 0 -170 0 72 145 c65
129 75 145 98 145 23 0 33 -16 98 -145z m102 -280 l0 -55 -200 0 -200 0 0 55
0 55 200 0 200 0 0 -55z m0 -155 l0 -30 -200 0 -200 0 0 30 0 30 200 0 200 0
0 -30z m0 -430 l0 -320 -200 0 -200 0 0 320 0 320 200 0 200 0 0 -320z m0
-430 l0 -30 -200 0 -200 0 0 30 0 30 200 0 200 0 0 -30z m0 -160 l0 -60 -200
0 -200 0 0 60 0 60 200 0 200 0 0 -60z"/>
</g>
</svg>
