<?xml version="1.0" encoding="iso-8859-1"?>
<!-- Generator: Adobe Illustrator 16.0.0, SVG Export Plug-In . SVG Version: 6.00 Build 0)  -->
<!DOCTYPE svg PUBLIC "-//W3C//DTD SVG 1.1//EN" "http://www.w3.org/Graphics/SVG/1.1/DTD/svg11.dtd">
<svg version="1.1" id="Capa_1" xmlns="http://www.w3.org/2000/svg" xmlns:xlink="http://www.w3.org/1999/xlink" x="0px" y="0px"
	 width="319.375px" height="319.375px" viewBox="0 0 319.375 319.375" style="enable-background:new 0 0 319.375 319.375;"
	 xml:space="preserve">
<g>
	<path d="M253.42,3.589c-3.164-3.164-8.289-3.164-11.453,0l-48.685,48.679L20.475,225.074c-1.073,1.08-1.83,2.436-2.165,3.928
		L0.204,308.256c-0.609,2.669,0.169,5.458,2.07,7.431c1.537,1.593,3.649,2.473,5.825,2.473c0.509,0,1.015-0.047,1.523-0.147
		l81.686-15.673c1.593-0.306,3.056-1.075,4.201-2.225l172.816-172.811l48.685-48.682c1.519-1.519,2.367-3.581,2.367-5.73
		c0-2.148-0.849-4.208-2.367-5.729L253.42,3.589z M134.383,238.331c-0.962-0.253-1.982-0.348-3.029-0.216
		c-3.953,0.479-9.294,0.427-12.264-2.542c-4.008-4.008-3.673-13.368,0.896-25.033c5.545-14.186,16.417-29.806,30.597-43.985
		c14.181-14.181,29.806-25.044,43.985-30.597c11.676-4.567,21.025-4.896,25.033-0.896c3.733,3.733,2.874,11.243,2.036,15.385
		c-0.048,0.237-0.043,0.469-0.069,0.702L134.383,238.331z M237.5,135.219c-1.393-5.337-3.929-9.1-6.444-11.609
		c-8.949-8.954-24.005-9.928-42.394-2.734c-16.216,6.347-33.808,18.502-49.533,34.225c-15.725,15.726-27.88,33.323-34.229,49.533
		c-7.193,18.384-6.22,33.438,2.737,42.398c2.458,2.452,6.209,5.025,11.609,6.434L85.81,286.905l-26.671,5.12
		c-0.453-1.323-1.221-2.632-2.365-3.871c-8.527-8.521-16.999-17.086-24.949-26.156c-1.187-1.36-2.484-2.235-3.812-2.758
		l5.563-24.348L199.009,69.457l52.128,52.128L237.5,135.219z M262.596,110.121l-52.128-52.128l37.236-37.229l52.128,52.128
		L262.596,110.121z"/>
</g>
<g>
</g>
<g>
</g>
<g>
</g>
<g>
</g>
<g>
</g>
<g>
</g>
<g>
</g>
<g>
</g>
<g>
</g>
<g>
</g>
<g>
</g>
<g>
</g>
<g>
</g>
<g>
</g>
<g>
</g>
</svg>
