<?xml version="1.0" standalone="no"?>
<!DOCTYPE svg PUBLIC "-//W3C//DTD SVG 20010904//EN"
 "http://www.w3.org/TR/2001/REC-SVG-20010904/DTD/svg10.dtd">
<svg version="1.0" xmlns="http://www.w3.org/2000/svg"
 width="720.000000pt" height="1280.000000pt" viewBox="0 0 720.000000 1280.000000"
 preserveAspectRatio="xMidYMid meet">
<metadata>
Created by potrace 1.15, written by Peter Selinger 2001-2017
</metadata>
<g transform="translate(0.000000,1280.000000) scale(0.100000,-0.100000)"
fill="#000000" stroke="none">
<path d="M3710 12461 c-19 -4 -45 -13 -56 -19 -33 -18 -110 -107 -146 -170
-18 -31 -72 -108 -120 -170 -49 -63 -105 -139 -125 -170 -21 -32 -81 -116
-135 -189 -54 -72 -98 -134 -98 -137 0 -3 -35 -56 -77 -117 -95 -135 -214
-315 -267 -401 -62 -101 -88 -139 -146 -215 -30 -39 -75 -102 -100 -138 -58
-85 -120 -168 -167 -224 -35 -40 -53 -64 -133 -179 -17 -24 -30 -52 -30 -63 0
-18 -70 -104 -110 -135 -13 -11 -14 -138 -12 -1026 2 -704 6 -1025 14 -1053 7
-26 14 -252 18 -640 5 -420 11 -612 19 -640 7 -22 17 -61 22 -86 8 -37 6
-3232 -2 -4764 -2 -270 12 -543 30 -588 8 -20 8 -41 2 -65 -11 -43 -13 -166
-7 -556 4 -267 5 -279 25 -299 20 -21 32 -22 289 -24 147 -2 719 1 1272 7
1002 11 1052 11 1218 8 48 -1 154 2 237 7 136 8 151 10 172 31 20 20 23 33 23
99 0 55 -5 86 -19 113 -18 35 -19 57 -16 262 1 124 7 245 13 270 6 25 13 153
17 285 4 150 12 265 21 306 18 82 15 627 -5 789 -9 74 -12 199 -9 425 4 273 8
327 22 365 16 40 17 75 12 341 -4 227 -9 305 -21 338 -20 58 -21 302 -1 374 9
33 16 132 20 274 4 122 11 247 17 277 5 31 12 138 14 239 7 325 22 590 39 665
15 64 16 177 13 1045 -2 759 -6 982 -16 1017 -9 30 -16 163 -21 410 -5 201
-11 388 -14 415 -3 28 -8 73 -11 100 -3 28 -8 64 -10 80 -3 17 -8 140 -11 275
-3 150 -11 274 -20 319 -8 40 -14 132 -14 205 0 96 -5 151 -20 208 -21 86 -45
138 -61 138 -7 0 -4 11 6 27 16 23 16 32 4 81 -8 35 -27 73 -51 103 -21 27
-38 52 -38 56 0 10 -52 87 -73 108 -10 9 -17 23 -17 30 0 8 -15 35 -32 61 -40
56 -50 71 -108 159 -68 104 -85 133 -129 220 -23 44 -54 105 -70 135 -41 77
-121 250 -121 261 0 5 -9 26 -20 46 -11 21 -20 44 -20 51 0 12 -10 35 -53 117
-22 43 -112 226 -161 325 -22 47 -57 106 -77 133 -31 42 -63 126 -85 222 -10
49 -53 130 -90 174 -38 44 -34 43 -204 61 -58 6 -116 13 -130 15 -14 1 -41 0
-60 -4z m229 -158 c22 -6 23 -9 18 -72 -3 -50 0 -74 13 -101 21 -41 60 -160
60 -182 0 -14 31 -81 131 -282 21 -43 39 -83 39 -88 0 -6 7 -26 16 -46 62
-139 97 -203 179 -327 51 -77 107 -167 125 -200 18 -33 43 -78 55 -100 24 -43
93 -179 170 -335 49 -101 57 -115 122 -225 49 -84 58 -109 41 -122 -27 -20
-126 -52 -198 -64 -41 -6 -116 -26 -166 -44 -84 -31 -161 -51 -329 -89 -197
-43 -239 -48 -545 -53 -363 -6 -689 8 -850 37 -63 12 -142 25 -175 29 -33 5
-89 20 -125 34 -36 14 -109 40 -162 57 -54 17 -98 36 -98 43 0 6 9 20 19 31
11 12 27 35 38 53 10 17 32 56 50 85 70 121 225 347 276 404 29 34 71 90 92
125 31 52 143 225 269 415 12 18 38 51 59 75 21 24 62 74 92 112 29 37 75 90
102 118 52 54 143 193 143 219 0 8 23 42 51 74 49 57 101 134 127 186 13 27
24 45 89 142 67 102 61 98 161 98 48 0 98 -3 111 -7z m933 -2252 l33 -29 -21
-24 c-12 -13 -24 -31 -27 -41 -4 -9 -19 -22 -34 -28 -67 -27 -134 -52 -216
-79 -49 -17 -113 -41 -143 -55 -30 -14 -57 -25 -60 -25 -3 0 -20 -6 -37 -14
-73 -33 -209 -65 -377 -91 -58 -9 -145 -22 -195 -30 -190 -30 -322 -37 -670
-32 -325 3 -468 12 -605 36 -30 6 -98 18 -150 27 -52 9 -121 25 -153 35 -31
11 -66 19 -77 19 -18 0 -19 9 -22 152 -2 95 1 156 8 166 9 12 21 10 85 -13
241 -86 585 -156 910 -185 149 -13 685 -13 786 0 117 16 259 41 343 62 223 56
282 72 364 103 102 37 207 73 218 74 4 1 22 -12 40 -28z m118 -253 c0 -18 9
-48 20 -66 11 -18 20 -43 20 -57 0 -20 -7 -26 -42 -36 -120 -32 -276 -117
-358 -194 -79 -75 -217 -129 -534 -210 -144 -36 -202 -46 -411 -70 -77 -9
-177 -20 -221 -26 -80 -9 -387 6 -621 31 -51 6 -123 10 -160 10 -62 0 -196 19
-358 50 -103 20 -165 41 -174 59 -14 24 -17 259 -4 272 7 7 36 3 94 -15 46
-14 149 -39 229 -56 79 -17 160 -35 180 -40 19 -5 132 -16 250 -25 118 -9 231
-20 250 -25 90 -23 192 -33 390 -36 212 -3 284 2 385 32 28 7 102 27 165 43
324 81 504 145 607 216 43 30 107 72 143 94 36 22 76 49 90 60 39 31 60 27 60
-11z m76 -493 c1 -321 16 -784 26 -844 7 -44 19 -73 38 -95 29 -33 30 -40 46
-366 3 -58 9 -121 14 -140 6 -19 10 -104 10 -189 0 -133 -2 -157 -17 -174 -15
-16 -18 -38 -17 -146 7 -1073 1 -1732 -17 -1786 -12 -34 -51 -212 -79 -355
-15 -79 -18 -124 -13 -265 3 -93 6 -309 7 -480 2 -481 17 -1083 30 -1160 7
-48 9 -219 6 -540 l-5 -470 -60 -6 c-33 -3 -87 -16 -120 -28 -89 -32 -360
-101 -399 -101 -19 0 -70 -7 -113 -15 -63 -12 -178 -15 -603 -15 -289 0 -579
4 -645 9 -66 5 -203 13 -305 16 -211 8 -504 46 -526 68 -3 3 -5 13 -6 23 -19
758 -28 2080 -14 2102 3 5 6 121 7 258 1 138 7 285 14 329 7 50 11 161 9 295
-3 302 -3 394 1 483 4 63 1 85 -14 113 -18 34 -19 56 -14 412 5 360 4 381 -16
459 -20 79 -21 102 -21 800 0 483 -4 731 -11 758 -6 22 -15 96 -20 165 -15
227 -19 274 -28 357 -5 46 -12 86 -15 91 -9 15 -9 203 1 213 5 5 47 -8 103
-32 52 -23 156 -57 230 -76 l135 -35 530 6 c553 6 579 8 770 55 218 55 401
111 555 173 186 74 237 102 470 254 19 13 44 22 55 21 19 -2 20 -10 21 -142z
m2 -7177 c5 -8 9 -80 8 -175 -1 -195 3 -188 -141 -231 -281 -85 -470 -120
-765 -143 -74 -5 -153 -14 -175 -19 -22 -5 -79 -10 -127 -10 -48 0 -161 -7
-250 -16 -293 -29 -743 -3 -1033 58 -27 6 -70 14 -95 18 -72 13 -152 38 -167
53 -11 11 -14 55 -14 199 1 102 4 193 7 202 7 19 47 20 113 5 24 -5 94 -14
155 -19 61 -5 163 -16 226 -24 135 -18 793 -38 1210 -38 287 1 406 9 535 36
39 9 120 22 181 30 112 16 268 58 279 76 9 14 41 12 53 -2z m-12 -615 c-4 -21
-11 -115 -15 -210 -5 -94 -12 -177 -16 -183 -12 -19 -81 -46 -205 -79 -63 -16
-153 -42 -200 -56 -115 -36 -362 -73 -630 -96 -173 -14 -696 -29 -1042 -29
-262 -1 -322 2 -421 19 -140 25 -206 41 -213 52 -7 12 -6 577 1 590 9 13 55
11 111 -5 51 -15 147 -35 299 -61 50 -9 110 -20 135 -25 73 -14 409 -25 625
-20 246 6 358 5 694 -5 193 -6 286 -5 350 5 97 14 355 81 446 116 84 33 89 32
81 -13z m-61 -678 c0 -44 -4 -102 -8 -130 -5 -27 -12 -68 -15 -89 -6 -32 -12
-41 -33 -47 -15 -3 -114 -7 -220 -7 -225 -1 -586 -10 -644 -17 -63 -8 -545
-33 -830 -45 -156 -6 -398 -7 -605 -3 l-345 8 2 35 c14 199 16 211 33 220 10
6 59 3 131 -6 197 -26 1601 -9 1648 20 5 3 72 11 148 17 151 11 212 20 318 44
39 9 90 20 115 25 109 21 234 50 239 55 3 3 19 5 36 3 l30 -3 0 -80z"/>
<path d="M3555 8160 c-92 -12 -213 -56 -252 -93 -13 -11 -23 -32 -23 -47 0
-28 -17 -47 -61 -69 -71 -35 -169 -160 -193 -246 -18 -66 -97 -287 -106 -300
-4 -5 -11 -30 -15 -55 -4 -25 -13 -56 -20 -70 -7 -14 -16 -43 -20 -65 -3 -21
-14 -53 -23 -70 -11 -22 -18 -79 -25 -210 -5 -99 -12 -234 -15 -300 -4 -66 -4
-160 0 -210 5 -49 12 -216 16 -370 7 -221 12 -286 24 -310 16 -32 30 -279 29
-547 0 -73 5 -153 10 -178 6 -25 15 -72 20 -105 5 -33 19 -98 30 -145 11 -47
20 -121 20 -165 0 -104 14 -264 33 -390 14 -91 40 -173 81 -251 8 -16 15 -39
15 -50 0 -12 20 -43 45 -68 25 -26 45 -50 45 -53 0 -2 20 -29 45 -57 25 -29
45 -57 45 -61 0 -11 60 -77 96 -105 18 -14 57 -44 86 -66 30 -23 94 -62 144
-86 49 -25 107 -56 129 -68 36 -22 52 -24 170 -24 116 -1 134 1 170 21 59 33
77 52 114 118 19 33 40 67 47 75 24 29 92 165 99 200 7 38 50 173 65 205 32
69 100 318 100 368 1 17 8 50 16 72 9 22 22 65 29 95 7 30 21 77 29 104 9 27
16 68 16 91 0 23 7 65 15 93 9 28 20 91 25 139 5 48 16 120 25 158 22 98 32
754 15 985 -7 91 -16 226 -20 300 -9 152 -24 250 -45 290 -8 15 -18 70 -24
123 -5 53 -12 101 -15 106 -3 5 -10 40 -16 78 -5 38 -18 90 -30 115 -15 34
-22 83 -29 194 -10 148 -18 187 -51 254 -32 62 -82 155 -90 165 -5 6 -25 43
-45 83 -24 49 -63 102 -118 160 -138 146 -169 174 -242 208 -65 31 -79 34
-190 38 -66 2 -147 1 -180 -4z m295 -375 c16 -8 50 -47 77 -85 56 -82 53 -77
88 -155 15 -33 33 -72 41 -87 8 -14 14 -34 14 -45 0 -10 7 -31 16 -48 8 -16
22 -55 29 -85 8 -30 28 -93 45 -140 17 -47 36 -114 41 -149 5 -36 14 -70 19
-76 10 -13 17 -57 25 -165 3 -41 11 -111 20 -155 32 -175 36 -323 32 -1015 -3
-377 -8 -710 -12 -740 -4 -30 -16 -67 -26 -82 -11 -14 -19 -40 -19 -56 0 -17
-9 -54 -19 -84 -11 -29 -25 -79 -32 -111 -7 -32 -16 -60 -21 -63 -4 -3 -8 -14
-8 -24 0 -21 -57 -170 -71 -185 -5 -5 -9 -16 -9 -25 0 -8 -12 -37 -25 -65 -14
-27 -25 -59 -25 -70 -1 -43 -48 -202 -71 -238 -23 -36 -114 -104 -188 -140
-52 -26 -91 -21 -182 25 -102 51 -212 154 -228 215 -6 21 -17 47 -25 58 -9 11
-16 29 -16 40 0 12 -9 46 -20 77 -11 32 -22 99 -26 154 -4 55 -13 117 -20 139
-8 22 -17 85 -21 140 -3 55 -11 106 -17 114 -7 9 -13 141 -18 400 -7 419 -22
713 -38 776 -6 22 -15 186 -19 365 -5 183 -14 340 -20 360 -6 19 -11 82 -11
139 0 100 9 151 55 316 8 28 19 95 24 150 6 55 15 116 21 135 6 19 15 70 20
113 10 85 50 175 98 220 68 62 179 137 212 143 19 3 51 9 70 14 61 14 208 12
240 -5z"/>
</g>
</svg>
