<svg id = "ohman" height="512" viewBox="0 0 512 512" width="512" xmlns="http://www.w3.org/2000/svg" data-name="Layer 1">
<path class = "crayon" d="m277.646 395.663-3.331-168.944-39.265.592 3.332 168.944z"/>
<path class = "crayon" d="m317.908 175.025-.76-38.522-128.462 1.939.759 38.522z"/>
<path class = "crayon" d="m322.9 428.405-4.761-241.383-128.462 1.94 4.761 241.382zm-98.283-211.171a6 6 0 0 1 4.225-1.831l51.263-.773h.093a6 6 0 0 1 6 5.882l3.568 180.942a6 6 0 0 1 -5.909 6.117l-51.262.774h-.095a6 6 0 0 1 -6-5.882l-3.568-180.942a6 6 0 0 1 1.685-4.287z"/>
<path class = "crayon" d="m227.286 478h.581l63.567-.96c9.5-.143 18.429-3.825 24.492-10.1a25.209 25.209 0 0 0 7.384-18l-.169-8.533-128.461 1.94.167 8.476c.297 15.085 14.794 27.177 32.439 27.177z"/>
<path class = "crayon" d="m251.275 34h-.418-.107c-9.193.139-17.413 4.941-20.852 12.233l-37.798 80.157 121.138-1.828-40.918-78.925c-3.681-7.101-11.91-11.637-21.045-11.637z"/>
</svg>